<svg xmlns="http://www.w3.org/2000/svg" viewBox="0 0 820 460" font-family="Helvetica,Arial,sans-serif">
<rect width="820" height="460" fill="#0f1117"/>
<text x="70" y="30" fill="#e6e6e6" font-size="18" font-weight="700">GLM53_EXL3_MOE_FAST: every run, not just the median</text>
<text x="70" y="50" fill="#9aa0a6" font-size="12">Same image (ca85576 build), same geometry. A = FAST=0, 5 runs. B = FAST=1, 8 runs, warm. tok/s per stream, 400 tok, temp 0.</text>
<text x="70" y="66" fill="#9aa0a6" font-size="12">Bar = median. Stock is tight; the fast path has a ~69 tok/s mode and a slow tail 15-30% below stock.</text>
<line x1="70" x2="790" y1="400.0" y2="400.0" stroke="#2a2e37"/>
<text x="62" y="404.0" fill="#9aa0a6" font-size="11" text-anchor="end">20</text>
<line x1="70" x2="790" y1="370.9" y2="370.9" stroke="#2a2e37"/>
<text x="62" y="374.9" fill="#9aa0a6" font-size="11" text-anchor="end">25</text>
<line x1="70" x2="790" y1="341.8" y2="341.8" stroke="#2a2e37"/>
<text x="62" y="345.8" fill="#9aa0a6" font-size="11" text-anchor="end">30</text>
<line x1="70" x2="790" y1="312.7" y2="312.7" stroke="#2a2e37"/>
<text x="62" y="316.7" fill="#9aa0a6" font-size="11" text-anchor="end">35</text>
<line x1="70" x2="790" y1="283.6" y2="283.6" stroke="#2a2e37"/>
<text x="62" y="287.6" fill="#9aa0a6" font-size="11" text-anchor="end">40</text>
<line x1="70" x2="790" y1="254.5" y2="254.5" stroke="#2a2e37"/>
<text x="62" y="258.5" fill="#9aa0a6" font-size="11" text-anchor="end">45</text>
<line x1="70" x2="790" y1="225.5" y2="225.5" stroke="#2a2e37"/>
<text x="62" y="229.5" fill="#9aa0a6" font-size="11" text-anchor="end">50</text>
<line x1="70" x2="790" y1="196.4" y2="196.4" stroke="#2a2e37"/>
<text x="62" y="200.4" fill="#9aa0a6" font-size="11" text-anchor="end">55</text>
<line x1="70" x2="790" y1="167.3" y2="167.3" stroke="#2a2e37"/>
<text x="62" y="171.3" fill="#9aa0a6" font-size="11" text-anchor="end">60</text>
<line x1="70" x2="790" y1="138.2" y2="138.2" stroke="#2a2e37"/>
<text x="62" y="142.2" fill="#9aa0a6" font-size="11" text-anchor="end">65</text>
<line x1="70" x2="790" y1="109.1" y2="109.1" stroke="#2a2e37"/>
<text x="62" y="113.1" fill="#9aa0a6" font-size="11" text-anchor="end">70</text>
<line x1="70" x2="790" y1="80.0" y2="80.0" stroke="#2a2e37"/>
<text x="62" y="84.0" fill="#9aa0a6" font-size="11" text-anchor="end">75</text>
<line x1="103.0" x2="147.0" y1="149.1" y2="149.1" stroke="#7f8c9a" stroke-width="3"/>
<circle cx="119.0" cy="153.4" r="4.5" fill="#7f8c9a" fill-opacity="0.85" stroke="#0f1117"/>
<circle cx="125.0" cy="142.3" r="4.5" fill="#7f8c9a" fill-opacity="0.85" stroke="#0f1117"/>
<circle cx="131.0" cy="149.1" r="4.5" fill="#7f8c9a" fill-opacity="0.85" stroke="#0f1117"/>
<circle cx="119.0" cy="136.3" r="4.5" fill="#7f8c9a" fill-opacity="0.85" stroke="#0f1117"/>
<circle cx="125.0" cy="152.0" r="4.5" fill="#7f8c9a" fill-opacity="0.85" stroke="#0f1117"/>
<text x="153.0" y="169.1" fill="#7f8c9a" font-size="11" text-anchor="start" font-weight="600">63.1</text>
<line x1="173.0" x2="217.0" y1="120.1" y2="120.1" stroke="#4cc38a" stroke-width="3"/>
<circle cx="189.0" cy="124.6" r="4.5" fill="#4cc38a" fill-opacity="0.85" stroke="#0f1117"/>
<circle cx="195.0" cy="114.8" r="4.5" fill="#4cc38a" fill-opacity="0.85" stroke="#0f1117"/>
<circle cx="201.0" cy="114.8" r="4.5" fill="#4cc38a" fill-opacity="0.85" stroke="#0f1117"/>
<circle cx="189.0" cy="168.4" r="4.5" fill="#4cc38a" fill-opacity="0.85" stroke="#0f1117"/>
<circle cx="195.0" cy="226.6" r="4.5" fill="#4cc38a" fill-opacity="0.85" stroke="#0f1117"/>
<circle cx="201.0" cy="124.6" r="4.5" fill="#4cc38a" fill-opacity="0.85" stroke="#0f1117"/>
<circle cx="189.0" cy="115.6" r="4.5" fill="#4cc38a" fill-opacity="0.85" stroke="#0f1117"/>
<circle cx="195.0" cy="115.0" r="4.5" fill="#4cc38a" fill-opacity="0.85" stroke="#0f1117"/>
<text x="223.0" y="116.1" fill="#4cc38a" font-size="11" text-anchor="start" font-weight="600">68.1</text>
<text x="160.0" y="422" fill="#e6e6e6" font-size="12" text-anchor="middle">Structured x1</text>
<text x="160.0" y="440" fill="#4cc38a" font-size="12" text-anchor="middle" font-weight="600">median +7.9%   sd 1.1 -> 6.4</text>
<line x1="283.0" x2="327.0" y1="269.5" y2="269.5" stroke="#7f8c9a" stroke-width="3"/>
<circle cx="299.0" cy="264.1" r="4.5" fill="#7f8c9a" fill-opacity="0.85" stroke="#0f1117"/>
<circle cx="305.0" cy="281.1" r="4.5" fill="#7f8c9a" fill-opacity="0.85" stroke="#0f1117"/>
<circle cx="311.0" cy="254.5" r="4.5" fill="#7f8c9a" fill-opacity="0.85" stroke="#0f1117"/>
<circle cx="299.0" cy="285.4" r="4.5" fill="#7f8c9a" fill-opacity="0.85" stroke="#0f1117"/>
<circle cx="305.0" cy="269.5" r="4.5" fill="#7f8c9a" fill-opacity="0.85" stroke="#0f1117"/>
<text x="333.0" y="289.5" fill="#7f8c9a" font-size="11" text-anchor="start" font-weight="600">42.4</text>
<line x1="353.0" x2="397.0" y1="264.7" y2="264.7" stroke="#4cc38a" stroke-width="3"/>
<circle cx="369.0" cy="252.1" r="4.5" fill="#4cc38a" fill-opacity="0.85" stroke="#0f1117"/>
<circle cx="375.0" cy="289.3" r="4.5" fill="#4cc38a" fill-opacity="0.85" stroke="#0f1117"/>
<circle cx="381.0" cy="297.4" r="4.5" fill="#4cc38a" fill-opacity="0.85" stroke="#0f1117"/>
<circle cx="369.0" cy="263.8" r="4.5" fill="#4cc38a" fill-opacity="0.85" stroke="#0f1117"/>
<circle cx="375.0" cy="219.5" r="4.5" fill="#4cc38a" fill-opacity="0.85" stroke="#0f1117"/>
<circle cx="381.0" cy="253.9" r="4.5" fill="#4cc38a" fill-opacity="0.85" stroke="#0f1117"/>
<circle cx="369.0" cy="265.5" r="4.5" fill="#4cc38a" fill-opacity="0.85" stroke="#0f1117"/>
<circle cx="375.0" cy="269.5" r="4.5" fill="#4cc38a" fill-opacity="0.85" stroke="#0f1117"/>
<text x="403.0" y="260.7" fill="#4cc38a" font-size="11" text-anchor="start" font-weight="600">43.3</text>
<text x="340.0" y="422" fill="#e6e6e6" font-size="12" text-anchor="middle">Code x1</text>
<text x="340.0" y="440" fill="#4cc38a" font-size="12" text-anchor="middle" font-weight="600">median +1.9%   sd 1.9 -> 3.8</text>
<line x1="463.0" x2="507.0" y1="367.6" y2="367.6" stroke="#7f8c9a" stroke-width="3"/>
<circle cx="479.0" cy="367.6" r="4.5" fill="#7f8c9a" fill-opacity="0.85" stroke="#0f1117"/>
<circle cx="485.0" cy="368.6" r="4.5" fill="#7f8c9a" fill-opacity="0.85" stroke="#0f1117"/>
<circle cx="491.0" cy="365.6" r="4.5" fill="#7f8c9a" fill-opacity="0.85" stroke="#0f1117"/>
<circle cx="479.0" cy="367.1" r="4.5" fill="#7f8c9a" fill-opacity="0.85" stroke="#0f1117"/>
<circle cx="485.0" cy="369.4" r="4.5" fill="#7f8c9a" fill-opacity="0.85" stroke="#0f1117"/>
<text x="513.0" y="387.6" fill="#7f8c9a" font-size="11" text-anchor="start" font-weight="600">25.6</text>
<line x1="533.0" x2="577.0" y1="355.9" y2="355.9" stroke="#4cc38a" stroke-width="3"/>
<circle cx="549.0" cy="371.8" r="4.5" fill="#4cc38a" fill-opacity="0.85" stroke="#0f1117"/>
<circle cx="555.0" cy="352.6" r="4.5" fill="#4cc38a" fill-opacity="0.85" stroke="#0f1117"/>
<circle cx="561.0" cy="358.0" r="4.5" fill="#4cc38a" fill-opacity="0.85" stroke="#0f1117"/>
<circle cx="549.0" cy="354.3" r="4.5" fill="#4cc38a" fill-opacity="0.85" stroke="#0f1117"/>
<circle cx="555.0" cy="344.9" r="4.5" fill="#4cc38a" fill-opacity="0.85" stroke="#0f1117"/>
<circle cx="561.0" cy="357.4" r="4.5" fill="#4cc38a" fill-opacity="0.85" stroke="#0f1117"/>
<circle cx="549.0" cy="364.3" r="4.5" fill="#4cc38a" fill-opacity="0.85" stroke="#0f1117"/>
<circle cx="555.0" cy="351.1" r="4.5" fill="#4cc38a" fill-opacity="0.85" stroke="#0f1117"/>
<text x="583.0" y="351.9" fill="#4cc38a" font-size="11" text-anchor="start" font-weight="600">27.6</text>
<text x="520.0" y="422" fill="#e6e6e6" font-size="12" text-anchor="middle">Prose x1</text>
<text x="520.0" y="440" fill="#4cc38a" font-size="12" text-anchor="middle" font-weight="600">median +7.9%   sd 0.2 -> 1.3</text>
<line x1="643.0" x2="687.0" y1="194.6" y2="194.6" stroke="#7f8c9a" stroke-width="3"/>
<circle cx="659.0" cy="199.6" r="4.5" fill="#7f8c9a" fill-opacity="0.85" stroke="#0f1117"/>
<circle cx="665.0" cy="194.6" r="4.5" fill="#7f8c9a" fill-opacity="0.85" stroke="#0f1117"/>
<circle cx="671.0" cy="190.6" r="4.5" fill="#7f8c9a" fill-opacity="0.85" stroke="#0f1117"/>
<circle cx="659.0" cy="194.1" r="4.5" fill="#7f8c9a" fill-opacity="0.85" stroke="#0f1117"/>
<circle cx="665.0" cy="196.9" r="4.5" fill="#7f8c9a" fill-opacity="0.85" stroke="#0f1117"/>
<text x="693.0" y="214.6" fill="#7f8c9a" font-size="11" text-anchor="start" font-weight="600">55.3</text>
<line x1="713.0" x2="757.0" y1="179.9" y2="179.9" stroke="#4cc38a" stroke-width="3"/>
<circle cx="729.0" cy="186.3" r="4.5" fill="#4cc38a" fill-opacity="0.85" stroke="#0f1117"/>
<circle cx="735.0" cy="275.9" r="4.5" fill="#4cc38a" fill-opacity="0.85" stroke="#0f1117"/>
<circle cx="741.0" cy="166.5" r="4.5" fill="#4cc38a" fill-opacity="0.85" stroke="#0f1117"/>
<circle cx="729.0" cy="169.2" r="4.5" fill="#4cc38a" fill-opacity="0.85" stroke="#0f1117"/>
<circle cx="735.0" cy="173.5" r="4.5" fill="#4cc38a" fill-opacity="0.85" stroke="#0f1117"/>
<circle cx="741.0" cy="156.2" r="4.5" fill="#4cc38a" fill-opacity="0.85" stroke="#0f1117"/>
<circle cx="729.0" cy="240.0" r="4.5" fill="#4cc38a" fill-opacity="0.85" stroke="#0f1117"/>
<circle cx="735.0" cy="237.8" r="4.5" fill="#4cc38a" fill-opacity="0.85" stroke="#0f1117"/>
<text x="763.0" y="175.9" fill="#4cc38a" font-size="11" text-anchor="start" font-weight="600">57.8</text>
<text x="700.0" y="422" fill="#e6e6e6" font-size="12" text-anchor="middle">Structured x2 (per stream)</text>
<text x="700.0" y="440" fill="#4cc38a" font-size="12" text-anchor="middle" font-weight="600">median +4.6%   sd 0.5 -> 7.1</text>
<circle cx="640" cy="74" r="5" fill="#7f8c9a"/><text x="650" y="78" fill="#9aa0a6" font-size="12">A: FAST=0</text>
<circle cx="720" cy="74" r="5" fill="#4cc38a"/><text x="730" y="78" fill="#9aa0a6" font-size="12">B: FAST=1</text>
</svg>